<svg xmlns="http://www.w3.org/2000/svg" width="2400" height="1350" viewBox="0 0 2400 1350" role="img" aria-label="Holographic garment in a dark void">
  <defs>
    <linearGradient id="g0" x1="0" y1="0" x2="1" y2="1">
      <stop offset="0" stop-color="#05070c"/>
      <stop offset="1" stop-color="#0b1020"/>
    </linearGradient>
    <radialGradient id="goldGlow" cx="30%" cy="24%" r="70%">
      <stop offset="0" stop-color="rgba(212,175,55,.26)"/>
      <stop offset="0.55" stop-color="rgba(212,175,55,.08)"/>
      <stop offset="1" stop-color="rgba(212,175,55,0)"/>
    </radialGradient>
    <radialGradient id="blueGlow" cx="80%" cy="18%" r="70%">
      <stop offset="0" stop-color="rgba(212,175,55,.14)"/>
      <stop offset="1" stop-color="rgba(120,180,255,0)"/>
    </radialGradient>
    <filter id="blur" x="-20%" y="-20%" width="140%" height="140%">
      <feGaussianBlur stdDeviation="8"/>
    </filter>
  </defs>

  <rect width="2400" height="1350" fill="url(#g0)"/>
  <rect width="2400" height="1350" fill="url(#goldGlow)"/>
  <rect width="2400" height="1350" fill="url(#blueGlow)"/>

  <g opacity="0.8"><path d="M 2466.2 1072.5 Q 1745.3 649.8 1194.4 260.9" stroke="rgba(243,210,122,0.086)" stroke-width="1.60" fill="none"/><path d="M 1081.4 33.3 Q 1733.1 322.0 1715.5 598.6" stroke="rgba(243,210,122,0.135)" stroke-width="1.54" fill="none"/><path d="M 372.4 647.4 Q 298.6 713.5 493.1 743.5" stroke="rgba(243,210,122,0.082)" stroke-width="2.19" fill="none"/><path d="M 1789.7 559.8 Q 1576.2 501.7 1363.0 833.6" stroke="rgba(243,210,122,0.076)" stroke-width="1.98" fill="none"/><path d="M 668.0 1341.6 Q 1292.9 602.9 1367.4 50.6" stroke="rgba(243,210,122,0.113)" stroke-width="1.43" fill="none"/><path d="M 782.9 791.4 Q 418.0 569.9 -188.7 361.3" stroke="rgba(243,210,122,0.065)" stroke-width="2.08" fill="none"/><path d="M -24.8 8.4 Q 643.5 679.5 1817.4 1437.7" stroke="rgba(243,210,122,0.071)" stroke-width="2.06" fill="none"/><path d="M 866.4 1045.1 Q 331.4 1193.6 318.2 948.7" stroke="rgba(243,210,122,0.118)" stroke-width="1.59" fill="none"/><path d="M 1486.0 536.3 Q 1173.8 475.2 682.2 123.8" stroke="rgba(243,210,122,0.067)" stroke-width="2.02" fill="none"/><path d="M 500.3 969.1 Q 1342.6 1289.1 2150.3 1433.0" stroke="rgba(243,210,122,0.100)" stroke-width="1.32" fill="none"/><path d="M 565.6 758.5 Q 809.0 405.6 786.6 430.7" stroke="rgba(243,210,122,0.111)" stroke-width="1.90" fill="none"/><path d="M 1380.4 34.3 Q 2110.0 518.4 2313.3 870.6" stroke="rgba(243,210,122,0.138)" stroke-width="2.04" fill="none"/><path d="M -54.3 1250.1 Q -359.1 1291.3 -61.3 1139.7" stroke="rgba(243,210,122,0.113)" stroke-width="1.02" fill="none"/><path d="M 2427.6 1240.1 Q 940.7 1202.5 -64.7 1315.7" stroke="rgba(243,210,122,0.126)" stroke-width="1.67" fill="none"/></g>
  <g><circle cx="806.1" cy="182.2" r="5.7" fill="rgba(212,175,55,0.078)"/><circle cx="1155.4" cy="133.5" r="3.2" fill="rgba(212,175,55,0.098)"/><circle cx="1860.3" cy="517.5" r="5.7" fill="rgba(212,175,55,0.120)"/><circle cx="322.5" cy="202.0" r="5.7" fill="rgba(212,175,55,0.075)"/><circle cx="225.6" cy="929.0" r="5.5" fill="rgba(212,175,55,0.077)"/><circle cx="2204.8" cy="1027.0" r="4.6" fill="rgba(212,175,55,0.113)"/><circle cx="611.5" cy="390.1" r="3.6" fill="rgba(212,175,55,0.064)"/><circle cx="802.6" cy="465.8" r="3.0" fill="rgba(212,175,55,0.055)"/><circle cx="1295.5" cy="353.4" r="5.6" fill="rgba(212,175,55,0.133)"/><circle cx="1911.2" cy="1294.9" r="4.1" fill="rgba(212,175,55,0.055)"/><circle cx="316.9" cy="1196.5" r="2.9" fill="rgba(212,175,55,0.110)"/><circle cx="602.2" cy="843.6" r="2.7" fill="rgba(212,175,55,0.119)"/><circle cx="307.3" cy="347.5" r="4.4" fill="rgba(212,175,55,0.075)"/><circle cx="1699.5" cy="963.2" r="5.5" fill="rgba(212,175,55,0.077)"/><circle cx="1535.8" cy="197.8" r="4.7" fill="rgba(212,175,55,0.133)"/><circle cx="774.8" cy="985.2" r="3.0" fill="rgba(212,175,55,0.100)"/><circle cx="2243.6" cy="238.8" r="2.7" fill="rgba(212,175,55,0.114)"/><circle cx="163.9" cy="969.3" r="3.5" fill="rgba(212,175,55,0.111)"/><circle cx="978.1" cy="985.3" r="4.5" fill="rgba(212,175,55,0.119)"/><circle cx="1279.4" cy="1312.6" r="2.4" fill="rgba(212,175,55,0.059)"/><circle cx="1925.5" cy="1338.2" r="2.5" fill="rgba(212,175,55,0.075)"/><circle cx="156.7" cy="936.1" r="3.1" fill="rgba(212,175,55,0.106)"/><circle cx="1667.1" cy="773.2" r="4.4" fill="rgba(212,175,55,0.079)"/><circle cx="1134.4" cy="1218.2" r="4.9" fill="rgba(212,175,55,0.077)"/><circle cx="671.6" cy="104.1" r="4.7" fill="rgba(212,175,55,0.106)"/><circle cx="96.7" cy="1326.8" r="3.2" fill="rgba(212,175,55,0.062)"/><circle cx="552.2" cy="191.5" r="4.4" fill="rgba(212,175,55,0.134)"/><circle cx="606.8" cy="953.3" r="3.1" fill="rgba(212,175,55,0.112)"/><circle cx="425.5" cy="586.4" r="4.4" fill="rgba(212,175,55,0.120)"/><circle cx="1201.7" cy="474.5" r="2.5" fill="rgba(212,175,55,0.088)"/><circle cx="696.2" cy="307.3" r="4.4" fill="rgba(212,175,55,0.082)"/><circle cx="1142.0" cy="847.4" r="4.6" fill="rgba(212,175,55,0.123)"/><circle cx="231.2" cy="200.2" r="3.6" fill="rgba(212,175,55,0.127)"/><circle cx="1616.8" cy="1305.4" r="4.2" fill="rgba(212,175,55,0.066)"/><circle cx="575.5" cy="26.6" r="2.4" fill="rgba(212,175,55,0.074)"/><circle cx="414.8" cy="654.2" r="3.2" fill="rgba(212,175,55,0.058)"/><circle cx="1829.1" cy="1147.9" r="3.7" fill="rgba(212,175,55,0.098)"/><circle cx="1592.1" cy="617.5" r="3.8" fill="rgba(212,175,55,0.100)"/></g>

  <g filter="url(#blur)" opacity="0.9">
    <circle cx="1752.0" cy="621.0" r="210" fill="rgba(255,255,255,.04)"/>
  </g>

  <g><circle cx="1752.0" cy="621.0" r="160" fill="none" stroke="rgba(212,175,55,0.180)" stroke-width="1.2"/><circle cx="1752.0" cy="621.0" r="215" fill="none" stroke="rgba(212,175,55,0.150)" stroke-width="1.2"/><circle cx="1752.0" cy="621.0" r="270" fill="none" stroke="rgba(212,175,55,0.120)" stroke-width="1.2"/><circle cx="1752.0" cy="621.0" r="325" fill="none" stroke="rgba(212,175,55,0.090)" stroke-width="1.2"/></g>

  <g>
    <rect x="1562.0" y="555.0" width="380" height="132" rx="26" fill="rgba(255,255,255,.05)" stroke="rgba(255,255,255,.10)"/>
    <text x="1752.0" y="613.0" text-anchor="middle" font-family="ui-sans-serif,system-ui" font-size="50" fill="rgba(245,247,255,.92)" letter-spacing="2">W3</text>
    <text x="1752.0" y="655.0" text-anchor="middle" font-family="ui-sans-serif,system-ui" font-size="22" fill="rgba(245,247,255,.60)" letter-spacing="1">w3.moda</text>
  </g>

  <g opacity="0.9">
    <circle cx="432.0" cy="1053.0" r="280" fill="rgba(212,175,55,.06)"/>
    <circle cx="432.0" cy="1053.0" r="279" fill="none" stroke="rgba(255,255,255,.06)"/>
  </g>
</svg>